<mxfile host="app.diagrams.net" agent="Mozilla/5.0 (Windows NT 10.0; Win64; x64) AppleWebKit/537.36 (KHTML, like Gecko) Chrome/128.0.0.0 Safari/537.36" version="24.7.12">
  <diagram id="R2lEEEUBdFMjLlhIrx00" name="Page-1">
    <mxGraphModel dx="683" dy="368" grid="1" gridSize="10" guides="1" tooltips="1" connect="1" arrows="1" fold="1" page="1" pageScale="1" pageWidth="850" pageHeight="1100" math="0" shadow="0" extFonts="Permanent Marker^https://fonts.googleapis.com/css?family=Permanent+Marker">
      <root>
        <mxCell id="0" />
        <mxCell id="1" parent="0" />
        <mxCell id="3U_CHNlnDBD3Czu_5pSk-43" value="" style="swimlane;startSize=0;" vertex="1" parent="1">
          <mxGeometry x="160" y="200" width="120" height="80" as="geometry" />
        </mxCell>
        <mxCell id="3U_CHNlnDBD3Czu_5pSk-44" value="customers" style="text;html=1;align=center;verticalAlign=middle;resizable=0;points=[];autosize=1;strokeColor=none;fillColor=none;" vertex="1" parent="3U_CHNlnDBD3Czu_5pSk-43">
          <mxGeometry x="20" y="25" width="80" height="30" as="geometry" />
        </mxCell>
        <mxCell id="3U_CHNlnDBD3Czu_5pSk-46" value="&lt;u&gt;customer_id&lt;/u&gt;" style="ellipse;whiteSpace=wrap;html=1;" vertex="1" parent="1">
          <mxGeometry x="90" y="110" width="80" height="50" as="geometry" />
        </mxCell>
        <mxCell id="3U_CHNlnDBD3Czu_5pSk-47" value="name" style="ellipse;whiteSpace=wrap;html=1;" vertex="1" parent="1">
          <mxGeometry x="200" y="110" width="80" height="50" as="geometry" />
        </mxCell>
        <mxCell id="3U_CHNlnDBD3Czu_5pSk-48" value="&lt;u&gt;phoneNumber&lt;/u&gt;" style="ellipse;whiteSpace=wrap;html=1;" vertex="1" parent="1">
          <mxGeometry x="300" y="110" width="90" height="50" as="geometry" />
        </mxCell>
        <mxCell id="3U_CHNlnDBD3Czu_5pSk-49" value="branch" style="ellipse;whiteSpace=wrap;html=1;" vertex="1" parent="1">
          <mxGeometry x="30" y="170" width="80" height="50" as="geometry" />
        </mxCell>
        <mxCell id="3U_CHNlnDBD3Czu_5pSk-50" value="year" style="ellipse;whiteSpace=wrap;html=1;" vertex="1" parent="1">
          <mxGeometry x="30" y="260" width="80" height="50" as="geometry" />
        </mxCell>
        <mxCell id="3U_CHNlnDBD3Czu_5pSk-51" value="email" style="ellipse;whiteSpace=wrap;html=1;" vertex="1" parent="1">
          <mxGeometry x="130" y="320" width="80" height="50" as="geometry" />
        </mxCell>
        <mxCell id="3U_CHNlnDBD3Czu_5pSk-54" value="" style="endArrow=none;html=1;rounded=0;entryX=0.5;entryY=1;entryDx=0;entryDy=0;" edge="1" parent="1" target="3U_CHNlnDBD3Czu_5pSk-48">
          <mxGeometry width="50" height="50" relative="1" as="geometry">
            <mxPoint x="270" y="200" as="sourcePoint" />
            <mxPoint x="320" y="150" as="targetPoint" />
          </mxGeometry>
        </mxCell>
        <mxCell id="3U_CHNlnDBD3Czu_5pSk-55" value="" style="endArrow=none;html=1;rounded=0;entryX=0.5;entryY=1;entryDx=0;entryDy=0;" edge="1" parent="1" target="3U_CHNlnDBD3Czu_5pSk-47">
          <mxGeometry width="50" height="50" relative="1" as="geometry">
            <mxPoint x="240" y="200" as="sourcePoint" />
            <mxPoint x="270" y="160.0000000000001" as="targetPoint" />
          </mxGeometry>
        </mxCell>
        <mxCell id="3U_CHNlnDBD3Czu_5pSk-56" value="" style="endArrow=none;html=1;rounded=0;entryX=1;entryY=1;entryDx=0;entryDy=0;" edge="1" parent="1" target="3U_CHNlnDBD3Czu_5pSk-46">
          <mxGeometry width="50" height="50" relative="1" as="geometry">
            <mxPoint x="227.61" y="200" as="sourcePoint" />
            <mxPoint x="180.00146991622444" y="155.71591774562262" as="targetPoint" />
          </mxGeometry>
        </mxCell>
        <mxCell id="3U_CHNlnDBD3Czu_5pSk-57" value="" style="endArrow=none;html=1;rounded=0;entryX=1;entryY=0;entryDx=0;entryDy=0;" edge="1" parent="1" target="3U_CHNlnDBD3Czu_5pSk-49">
          <mxGeometry width="50" height="50" relative="1" as="geometry">
            <mxPoint x="160" y="200" as="sourcePoint" />
            <mxPoint x="210" y="150" as="targetPoint" />
          </mxGeometry>
        </mxCell>
        <mxCell id="3U_CHNlnDBD3Czu_5pSk-58" value="" style="endArrow=none;html=1;rounded=0;exitX=0.992;exitY=0.411;exitDx=0;exitDy=0;exitPerimeter=0;" edge="1" parent="1" source="3U_CHNlnDBD3Czu_5pSk-50">
          <mxGeometry width="50" height="50" relative="1" as="geometry">
            <mxPoint x="120" y="280" as="sourcePoint" />
            <mxPoint x="160" y="240" as="targetPoint" />
          </mxGeometry>
        </mxCell>
        <mxCell id="3U_CHNlnDBD3Czu_5pSk-59" value="" style="endArrow=none;html=1;rounded=0;entryX=0.419;entryY=1.007;entryDx=0;entryDy=0;entryPerimeter=0;" edge="1" parent="1" target="3U_CHNlnDBD3Czu_5pSk-43">
          <mxGeometry width="50" height="50" relative="1" as="geometry">
            <mxPoint x="170" y="320" as="sourcePoint" />
            <mxPoint x="220" y="270" as="targetPoint" />
          </mxGeometry>
        </mxCell>
      </root>
    </mxGraphModel>
  </diagram>
</mxfile>
